<svg width="48" height="55" viewBox="0 0 48 55" fill="none" xmlns="http://www.w3.org/2000/svg">
<rect width="48" height="55" fill="#454545"/>
<g id="Before Log in">
<path d="M-622 -607C-622 -608.105 -621.105 -609 -620 -609H7008C7009.1 -609 7010 -608.105 7010 -607V8379C7010 8380.1 7009.1 8381 7008 8381H-620C-621.104 8381 -622 8380.1 -622 8379V-607Z" fill="#100707" fill-opacity="0.3"/>
<g id="Home" clip-path="url(#clip0_8518_485)">
<rect width="1920" height="6443" transform="translate(-150 -20)" fill="#FAFAFA"/>
<g id="Frame 96">
<g id="Frame 62">
<g id="Isolation_Mode" clip-path="url(#clip1_8518_485)">
<path id="Vector" d="M25.1603 0H22.7568V7.16358H25.1603V0Z" fill="#1D91F6"/>
<path id="Vector_2" d="M32.9459 1.6631L30.0098 8.19971L32.2029 9.18126L35.139 2.64466L32.9459 1.6631Z" fill="#F78748"/>
<path id="Vector_3" d="M41.5596 7.33861L36.2021 12.105L37.8013 13.896L43.1588 9.12963L41.5596 7.33861Z" fill="#F7397F"/>
<path id="Vector_4" d="M47.095 16.0387L40.2529 18.2L40.9781 20.4873L47.8202 18.326L47.095 16.0387Z" fill="#20E3D2"/>
<path id="Vector_5" d="M14.8748 1.66151L12.6816 2.64307L15.6177 9.17967L17.8109 8.19812L14.8748 1.66151Z" fill="#20E3D2"/>
<path id="Vector_6" d="M6.26129 7.33862L4.66211 9.12964L10.0195 13.896L11.6187 12.105L6.26129 7.33862Z" fill="#FFD84E"/>
<path id="Vector_7" d="M0.728071 16.0364L0.00292969 18.3237L6.84504 20.485L7.57018 18.1977L0.728071 16.0364Z" fill="#F7397F"/>
<path id="Vector_8" d="M23.2181 54.2484C23.5502 54.5104 23.9591 54.6512 24.3823 54.6512C25.0002 54.6512 25.5805 54.3464 25.9323 53.8384L30.0143 47.9243L21.6253 51.0222C20.8789 51.2985 20.7235 52.2841 21.3485 52.7743L23.2199 54.2466L23.2181 54.2484Z" fill="#2D3112"/>
<path id="Vector_9" d="M17.1299 18.6655L17.1342 18.6589V18.6567L17.1299 18.6655Z" fill="#FEFFF8"/>
<path id="Vector_10" d="M31.1074 30.0144L31.136 30.1802L31.1074 30.0144Z" fill="#FEFFF8"/>
<path id="Vector_11" d="M24.613 8.96543C24.3915 8.95652 24.1719 8.95117 23.9523 8.95117C15.2329 8.95117 8.1582 16.0149 8.1582 24.7292V24.7738C8.17427 29.2477 10.6545 33.3473 14.4651 35.6181C15.0472 35.9639 15.4329 36.1386 15.4687 36.1546C17.3954 37.094 19.5489 37.6269 21.8363 37.6269C23.7237 37.6269 25.5361 37.2597 27.2004 36.5931C27.3968 36.5147 27.5968 36.4291 27.8039 36.3257L27.8128 36.3204C28.9432 35.7482 29.9074 34.8517 30.527 33.7073L30.5306 33.7002C30.9092 32.989 31.2092 32.0942 31.2092 31.0693C31.2092 30.7824 31.1859 30.4847 31.1359 30.1799V30.1763C30.9449 29.0516 30.3074 28.1658 29.5789 27.5098C28.4753 26.5206 27.12 25.9342 26.0272 25.5474C24.9344 25.1659 24.0987 25.0055 24.0594 24.9984H24.0523C23.9469 24.977 22.7041 24.7168 21.4702 24.1606C20.8185 23.8665 20.1738 23.4869 19.7149 23.0662C19.2489 22.6402 18.9882 22.216 18.915 21.7775C18.8864 21.6046 18.8721 21.4371 18.8721 21.2731C18.8721 20.717 19.0257 20.225 19.2578 19.7883C19.7631 18.8722 20.6577 18.1877 21.7238 17.874H21.7309C22.3166 17.6958 22.9041 17.6191 23.4898 17.6191C25.1451 17.6138 26.8057 18.2519 28.0361 18.9203C28.6503 19.2518 29.1574 19.5869 29.5021 19.8347C29.6753 19.9577 29.8092 20.0611 29.8949 20.1288L29.9896 20.2054L30.0092 20.2215L31.5698 18.398C31.5252 18.3606 30.6199 17.5906 29.1771 16.8099C27.7325 16.0328 25.7415 15.2235 23.4862 15.2182C22.6916 15.2182 21.8648 15.3234 21.0363 15.5711C19.4132 16.0488 17.9811 17.1129 17.1418 18.6387L17.1347 18.6529C16.7525 19.3695 16.465 20.2589 16.465 21.2713C16.465 21.5619 16.4883 21.8667 16.5418 22.1768C16.7329 23.2979 17.3686 24.182 18.0953 24.8397C18.8275 25.5028 19.6721 25.9787 20.4756 26.3441H20.4792C22.0934 27.0696 23.5559 27.3423 23.6094 27.3548L23.6505 27.3637C23.9023 27.4136 25.2219 27.7166 26.4468 28.3101C27.0593 28.6042 27.6414 28.9714 28.0521 29.3671C28.4682 29.7682 28.6967 30.1603 28.7682 30.5756C28.7967 30.7467 28.8092 30.9107 28.8092 31.0693C28.8092 31.6255 28.6503 32.1245 28.4128 32.5719C28.0468 33.2493 27.4504 33.8143 26.7325 34.1779C26.5843 34.251 26.4522 34.3098 26.3629 34.3401C26.3433 34.349 26.329 34.3561 26.3093 34.3651C24.9201 34.9212 23.4148 35.226 21.8398 35.226C19.9113 35.226 18.1168 34.7804 16.4936 33.9818L16.4722 33.9711L16.4543 33.964C16.4543 33.964 16.1526 33.8268 15.699 33.5558C12.583 31.7021 10.5688 28.3404 10.5635 24.7667V24.7275C10.5635 21.0289 12.0616 17.6922 14.4883 15.2681C16.9168 12.8458 20.256 11.3503 23.9541 11.3503C24.1398 11.3503 24.3273 11.3539 24.5165 11.361C31.5377 11.6337 37.3196 17.6156 37.3571 24.6312V24.7292C37.3571 30.2672 33.9805 35.0228 29.1735 37.0494L20.281 40.8531C18.9025 41.4431 18.0078 42.7959 18.0078 44.295C18.0078 46.9543 20.7077 48.7653 23.1737 47.7618L31.1199 44.5267V41.935L22.2452 45.548C21.3613 45.9081 20.3935 45.2593 20.3935 44.3057C20.3935 43.7691 20.7131 43.2843 21.2077 43.0722L30.4931 39.1028L30.4842 39.0849C35.9518 36.6091 39.7553 31.1139 39.7571 24.731V24.6169C39.6856 16.2912 32.9466 9.31835 24.6112 8.96721L24.613 8.96543Z" fill="#2E3507"/>
</g>
</g>
</g>
</g>
</g>
<defs>
<clipPath id="clip0_8518_485">
<rect width="1920" height="6443" fill="white" transform="translate(-150 -20)"/>
</clipPath>
<clipPath id="clip1_8518_485">
<rect width="47.7335" height="54.6511" fill="white"/>
</clipPath>
</defs>
</svg>
