<svg width="61" height="60" viewBox="0 0 61 60" fill="none" xmlns="http://www.w3.org/2000/svg">
<g clip-path="url(#clip0_35287_452)">
<path d="M30.5 60C47.0685 60 60.5 46.5685 60.5 30C60.5 13.4315 47.0685 0 30.5 0C13.9315 0 0.5 13.4315 0.5 30C0.5 46.5685 13.9315 60 30.5 60Z" fill="#27273D"/>
<path d="M30.5 60C47.0685 60 60.5 46.5685 60.5 30C60.5 13.4315 47.0685 0 30.5 0C13.9315 0 0.5 13.4315 0.5 30C0.5 46.5685 13.9315 60 30.5 60Z" fill="#04A558"/>
<path d="M35.1289 59.6485C33.5973 59.8844 32.0497 60.002 30.5 60C13.932 60 0.5 46.5692 0.5 30C0.5 13.4309 13.932 2.37486e-05 30.5 2.37486e-05C32.0497 -0.00192131 33.5973 0.115614 35.1289 0.351586C22.1855 2.36018 11.975 12.6399 10.0754 25.6184C9.65195 28.5241 9.65195 31.4759 10.0754 34.3817C11.975 47.3614 22.1855 57.641 35.1289 59.6485Z" fill="#03914A"/>
<path d="M30.4998 13.7695L2.52246 30L30.4998 46.2305L58.4771 30L30.4998 13.7695Z" fill="#FCC13D"/>
<path d="M9.75762 30C9.7575 31.4663 9.86364 32.9307 10.0752 34.3817L2.52246 30L10.0752 25.6184C9.86364 27.0694 9.7575 28.5337 9.75762 30Z" fill="#DDA22C"/>
<path d="M53.5055 18.3153C54.5591 18.3153 55.4133 17.4611 55.4133 16.4074C55.4133 15.3538 54.5591 14.4996 53.5055 14.4996C52.4518 14.4996 51.5977 15.3538 51.5977 16.4074C51.5977 17.4611 52.4518 18.3153 53.5055 18.3153Z" fill="#00B564"/>
<path d="M50.899 14.7586C51.6453 14.7586 52.2502 14.1537 52.2502 13.4074C52.2502 12.6612 51.6453 12.0563 50.899 12.0563C50.1528 12.0563 49.5479 12.6612 49.5479 13.4074C49.5479 14.1537 50.1528 14.7586 50.899 14.7586Z" fill="#00B564"/>
<path d="M42.1015 30V30.0867C42.09 33.1288 40.872 36.042 38.7148 38.187C36.5577 40.332 33.6376 41.5334 30.5955 41.5277C27.5534 41.5219 24.6379 40.3095 22.4888 38.1563C20.3398 36.0032 19.1328 33.0854 19.1328 30.0433C19.1328 27.0012 20.3398 24.0834 22.4888 21.9303C24.6379 19.7772 27.5534 18.5647 30.5955 18.559C33.6376 18.5532 36.5577 19.7547 38.7148 21.8997C40.872 24.0447 42.09 26.9579 42.1015 30Z" fill="#3E436D"/>
<path d="M42.1014 30.0867C42.0927 31.5323 41.8124 32.9634 41.2752 34.3055C38.9701 30.143 35.1732 27.1664 29.9385 25.4285C25.9623 24.1102 22.2428 23.9051 20.6338 23.8934C21.3222 22.7807 22.1939 21.7926 23.2119 20.9707C25.7914 21.1948 28.3372 21.7098 30.801 22.5059C35.5775 24.0762 39.3873 26.6449 42.1014 30.0867Z" fill="white"/>
<path d="M22.5312 34.4531C22.9843 34.4531 23.3516 34.0859 23.3516 33.6328C23.3516 33.1798 22.9843 32.8125 22.5312 32.8125C22.0782 32.8125 21.7109 33.1798 21.7109 33.6328C21.7109 34.0859 22.0782 34.4531 22.5312 34.4531Z" fill="white"/>
<path d="M26.3984 39.2578C26.8515 39.2578 27.2188 38.8905 27.2188 38.4375C27.2188 37.9845 26.8515 37.6172 26.3984 37.6172C25.9454 37.6172 25.5781 37.9845 25.5781 38.4375C25.5781 38.8905 25.9454 39.2578 26.3984 39.2578Z" fill="white"/>
<path d="M30.5 37.1097C30.953 37.1097 31.3203 36.7425 31.3203 36.2894C31.3203 35.8364 30.953 35.4691 30.5 35.4691C30.047 35.4691 29.6797 35.8364 29.6797 36.2894C29.6797 36.7425 30.047 37.1097 30.5 37.1097Z" fill="white"/>
<path d="M32.1406 40.0781C32.5937 40.0781 32.9609 39.7109 32.9609 39.2578C32.9609 38.8048 32.5937 38.4375 32.1406 38.4375C31.6876 38.4375 31.3203 38.8048 31.3203 39.2578C31.3203 39.7109 31.6876 40.0781 32.1406 40.0781Z" fill="white"/>
<path d="M37.7656 35.9379C38.2187 35.9379 38.5859 35.5706 38.5859 35.1176C38.5859 34.6645 38.2187 34.2972 37.7656 34.2972C37.3126 34.2972 36.9453 34.6645 36.9453 35.1176C36.9453 35.5706 37.3126 35.9379 37.7656 35.9379Z" fill="white"/>
<path d="M35.5391 38.5945C35.9921 38.5945 36.3594 38.2272 36.3594 37.7742C36.3594 37.3211 35.9921 36.9539 35.5391 36.9539C35.086 36.9539 34.7188 37.3211 34.7188 37.7742C34.7188 38.2272 35.086 38.5945 35.5391 38.5945Z" fill="white"/>
<path d="M32.1406 30.8203C32.5937 30.8203 32.9609 30.453 32.9609 30C32.9609 29.547 32.5937 29.1797 32.1406 29.1797C31.6876 29.1797 31.3203 29.547 31.3203 30C31.3203 30.453 31.6876 30.8203 32.1406 30.8203Z" fill="white"/>
<path d="M22.5312 27.7734C22.9843 27.7734 23.3516 27.4062 23.3516 26.9531C23.3516 26.5001 22.9843 26.1328 22.5312 26.1328C22.0782 26.1328 21.7109 26.5001 21.7109 26.9531C21.7109 27.4062 22.0782 27.7734 22.5312 27.7734Z" fill="white"/>
<path d="M26.3984 35.2734C26.8515 35.2734 27.2188 34.9062 27.2188 34.4531C27.2188 34.0001 26.8515 33.6328 26.3984 33.6328C25.9454 33.6328 25.5781 34.0001 25.5781 34.4531C25.5781 34.9062 25.9454 35.2734 26.3984 35.2734Z" fill="white"/>
</g>
<defs>
<clipPath id="clip0_35287_452">
<rect width="60" height="60" fill="white" transform="translate(0.5)"/>
</clipPath>
</defs>
</svg>
