<svg width="61" height="60" viewBox="0 0 61 60" fill="none" xmlns="http://www.w3.org/2000/svg">
<g clip-path="url(#clip0_35287_398)">
<path d="M2.36621 40.4348C6.605 51.8587 17.6013 60 30.5002 60C43.3992 60 54.3955 51.8587 58.6343 40.4348L30.5002 37.8262L2.36621 40.4348Z" fill="#FFDA44"/>
<path d="M30.5002 0C17.6013 0 6.605 8.14125 2.36621 19.5653L30.5002 22.1739L58.6343 19.5652C54.3955 8.14125 43.3992 0 30.5002 0Z" fill="black"/>
<path d="M2.36598 19.5652C1.16012 22.8151 0.5 26.3303 0.5 29.9999C0.5 33.6695 1.16012 37.1847 2.36598 40.4346H58.6341C59.84 37.1847 60.5 33.6695 60.5 29.9999C60.5 26.3303 59.84 22.8151 58.634 19.5652H2.36598Z" fill="#D80027"/>
</g>
<defs>
<clipPath id="clip0_35287_398">
<rect width="60" height="60" fill="white" transform="translate(0.5)"/>
</clipPath>
</defs>
</svg>
