<svg width="61" height="60" viewBox="0 0 61 60" fill="none" xmlns="http://www.w3.org/2000/svg">
<g clip-path="url(#clip0_35287_477)">
<mask id="mask0_35287_477" style="mask-type:luminance" maskUnits="userSpaceOnUse" x="0" y="0" width="61" height="60">
<path d="M30.5 60C47.0685 60 60.5 46.5685 60.5 30C60.5 13.4315 47.0685 0 30.5 0C13.9315 0 0.5 13.4315 0.5 30C0.5 46.5685 13.9315 60 30.5 60Z" fill="white"/>
</mask>
<g mask="url(#mask0_35287_477)">
<path d="M-22.1055 0H83.1045V60.12H-22.1055V0Z" fill="#D91F26"/>
</g>
<mask id="mask1_35287_477" style="mask-type:luminance" maskUnits="userSpaceOnUse" x="0" y="0" width="61" height="60">
<path d="M30.5 60C47.0685 60 60.5 46.5685 60.5 30C60.5 13.4315 47.0685 0 30.5 0C13.9315 0 0.5 13.4315 0.5 30C0.5 46.5685 13.9315 60 30.5 60Z" fill="white"/>
</mask>
<g mask="url(#mask1_35287_477)">
<path d="M-22.1055 0H83.1045V40.08H-22.1055V0Z" fill="white"/>
</g>
<mask id="mask2_35287_477" style="mask-type:luminance" maskUnits="userSpaceOnUse" x="0" y="0" width="61" height="60">
<path d="M30.5 60C47.0685 60 60.5 46.5685 60.5 30C60.5 13.4315 47.0685 0 30.5 0C13.9315 0 0.5 13.4315 0.5 30C0.5 46.5685 13.9315 60 30.5 60Z" fill="white"/>
</mask>
<g mask="url(#mask2_35287_477)">
<path d="M-22.1055 0H83.1045V20.04H-22.1055V0Z" fill="#269F49"/>
</g>
<mask id="mask3_35287_477" style="mask-type:luminance" maskUnits="userSpaceOnUse" x="0" y="0" width="61" height="60">
<path d="M30.5 60C47.0685 60 60.5 46.5685 60.5 30C60.5 13.4315 47.0685 0 30.5 0C13.9315 0 0.5 13.4315 0.5 30C0.5 46.5685 13.9315 60 30.5 60Z" fill="white"/>
</mask>
<g mask="url(#mask3_35287_477)">
<path d="M-20.2344 19.1049H-20.702V17.7024H-18.3638V18.6368H-16.9607V18.1701H-17.8963V17.7024H-16.493V19.1044H-18.8314V18.1701H-20.2343V19.1049H-20.2344ZM-11.8175 19.1044H-14.1558V18.1701H-15.5588V18.6368H-14.6232V19.1044H-16.0265V17.7024H-14.1558V16.7668H-13.6882V18.6368H-13.2204V16.7668H-12.7528V18.6368H-12.2853V16.7668H-11.8176V19.1044H-11.8175ZM-19.299 19.1044H-19.7669V18.6368H-19.299V19.1044ZM-14.6232 17.2347H-20.7021V16.767H-14.6232V17.2347ZM-11.8174 20.5077H-16.0258V19.5724H-11.8174V20.5077ZM-16.4938 20.5077H-20.7021V19.5724H-16.4938V20.5077ZM-11.8174 40.5477H-16.0258V39.6124H-11.8174V40.5477ZM-16.4938 40.5477H-20.7021V39.6124H-16.4938V40.5477ZM-20.2344 43.3532H-20.702V41.95H-18.3638V42.8853H-16.9607V42.4177H-17.8963V41.95H-16.493V43.353H-18.8314V42.4177H-20.2343V43.3532H-20.2344ZM-11.8175 43.353H-14.1558V42.4177H-15.5588V42.8853H-14.6232V43.353H-16.0265V41.95H-14.1558V41.0153H-13.6882V42.8853H-13.2204V41.0153H-12.7528V42.8853H-12.2853V41.0153H-11.8176V43.353H-11.8175ZM-19.299 43.353H-19.7669V42.8853H-19.299V43.353ZM-14.6232 41.4832H-20.7021V41.0155H-14.6232V41.4832ZM-10.8821 19.1049H-11.3498V17.7024H-9.01151V18.6368H-7.60937V18.1701H-8.54417V17.7024H-7.14173V19.1044H-9.47915V18.1701H-10.8821L-10.8821 19.1049ZM-2.46533 19.1044H-4.80359V18.1701H-6.20651V18.6368H-5.27093V19.1044H-6.67421V17.7024H-4.80359V16.7668H-4.33595V18.6368H-3.86843V16.7668H-3.40079V18.6368H-2.93303V16.7668H-2.46539V19.1044H-2.46533ZM-9.94763 19.1044H-10.4148V18.6368H-9.94763V19.1044ZM-5.27093 17.2347H-11.3499V16.767H-5.27093V17.2347ZM-2.46599 20.5077H-6.67361V19.5724H-2.46599V20.5077ZM-7.14155 20.5077H-11.35V19.5724H-7.14155V20.5077ZM-2.46599 40.5477H-6.67361V39.6124H-2.46599V40.5477ZM-7.14155 40.5477H-11.35V39.6124H-7.14155V40.5477ZM-10.8821 43.3532H-11.3498V41.95H-9.01151V42.8853H-7.60937V42.4177H-8.54417V41.95H-7.14173V43.353H-9.47915V42.4177H-10.8821L-10.8821 43.3532ZM-2.46533 43.353H-4.80359V42.4177H-6.20651V42.8853H-5.27093V43.353H-6.67421V41.95H-4.80359V41.0153H-4.33595V42.8853H-3.86843V41.0153H-3.40079V42.8853H-2.93303V41.0153H-2.46539V43.353H-2.46533ZM-9.94763 43.353H-10.4148V42.8853H-9.94763V43.353ZM-5.27093 41.4832H-11.3499V41.0155H-5.27093V41.4832ZM-1.53017 19.1049H-1.99781V17.7024H0.339611V18.6368H1.74253V18.1701H0.808092V17.7024H2.21023V19.1044H-0.128029V18.1701H-1.53017V19.1049ZM6.88693 19.1044H4.54855V18.1701H3.14563V18.6368H4.08103V19.1044H2.67799V17.7024H4.54855V16.7668H5.01619V18.6368H5.48383V16.7668H5.95147V18.6368H6.41923V16.7668H6.88687V19.1044H6.88693ZM-0.595369 19.1044H-1.06265V18.6368H-0.595369V19.1044ZM4.08103 17.2347H-1.99799V16.767H4.08103V17.2347ZM6.88621 20.5077H2.67787V19.5724H6.88621V20.5077ZM2.21041 20.5077H-1.99805V19.5724H2.21041V20.5077ZM6.88621 40.5477H2.67787V39.6124H6.88621V40.5477ZM2.21041 40.5477H-1.99805V39.6124H2.21041V40.5477ZM-1.53017 43.3532H-1.99781V41.95H0.339611V42.8853H1.74253V42.4177H0.808092V41.95H2.21023V43.353H-0.128029V42.4177H-1.53017V43.3532ZM6.88693 43.353H4.54855V42.4177H3.14563V42.8853H4.08103V43.353H2.67799V41.95H4.54855V41.0153H5.01619V42.8853H5.48383V41.0153H5.95147V42.8853H6.41923V41.0153H6.88687V43.353H6.88693ZM-0.595369 43.353H-1.06265V42.8853H-0.595369V43.353ZM4.08103 41.4832H-1.99799V41.0155H4.08103V41.4832ZM7.82119 19.1049H7.35355V17.7024H9.69193V18.6368H11.0949V18.1701H10.1595V17.7024H11.5625V19.1044H9.22423V18.1701H7.82119V19.1049ZM16.2383 19.1044H13.9008V18.1701H12.4979V18.6368H13.4324V19.1044H12.0303V17.7024H13.9008V16.7668H14.3685V18.6368H14.8352V16.7668H15.3028V18.6368H15.7706V16.7668H16.2382L16.2383 19.1044ZM8.75677 19.1044H8.28961V18.6368H8.75677V19.1044ZM13.4324 17.2347H7.35427V16.767H13.4324V17.2347ZM16.2385 20.5077H12.0301V19.5724H16.2385V20.5077ZM11.5627 20.5077H7.35427V19.5724H11.5627V20.5077ZM16.2385 40.5477H12.0301V39.6124H16.2385V40.5477ZM11.5627 40.5477H7.35427V39.6124H11.5627V40.5477ZM7.82119 43.3532H7.35355V41.95H9.69193V42.8853H11.0949V42.4177H10.1595V41.95H11.5625V43.353H9.22423V42.4177H7.82119V43.3532ZM16.2383 43.353H13.9008V42.4177H12.4979V42.8853H13.4324V43.353H12.0303V41.95H13.9008V41.0153H14.3685V42.8853H14.8352V41.0153H15.3028V42.8853H15.7706V41.0153H16.2382L16.2383 43.353ZM8.75677 43.353H8.28961V42.8853H8.75677V43.353ZM13.4324 41.4832H7.35427V41.0155H13.4324V41.4832ZM17.1735 19.1049H16.7058V17.7024H19.0441V18.6368H20.447V18.1701H19.5114V17.7024H20.9147V19.1044H18.5764V18.1701H17.1735L17.1735 19.1049ZM25.5903 19.1044H23.252V18.1701H21.8498V18.6368H22.7847V19.1044H21.3822V17.7024H23.252V16.7668H23.7196V18.6368H24.1873V16.7668H24.655V18.6368H25.1225V16.7668H25.5901V19.1044H25.5903ZM18.109 19.1044H17.6408V18.6368H18.109V19.1044ZM22.7847 17.2347H16.7064V16.767H22.7847V17.2347ZM25.5904 20.5077H21.382V19.5724H25.5904V20.5077ZM20.914 20.5077H16.7064V19.5724H20.914V20.5077ZM25.5904 40.5477H21.382V39.6124H25.5904V40.5477ZM20.914 40.5477H16.7064V39.6124H20.914V40.5477ZM17.1735 43.3532H16.7058V41.95H19.0441V42.8853H20.447V42.4177H19.5114V41.95H20.9147V43.353H18.5764V42.4177H17.1735L17.1735 43.3532ZM25.5903 43.353H23.252V42.4177H21.8498V42.8853H22.7847V43.353H21.3822V41.95H23.252V41.0153H23.7196V42.8853H24.1873V41.0153H24.655V42.8853H25.1225V41.0153H25.5901V43.353H25.5903ZM18.109 43.353H17.6408V42.8853H18.109V43.353ZM22.7847 41.4832H16.7064V41.0155H22.7847V41.4832ZM26.5256 19.1049H26.058V17.7024H28.3962V18.6368H29.7993V18.1701H28.8636V17.7024H30.2669V19.1044H27.9285V18.1701H26.5256V19.1049ZM34.9425 19.1044H32.6042V18.1701H31.2013V18.6368H32.1368V19.1044H30.7336V17.7024H32.6042V16.7668H33.0719V18.6368H33.5395V16.7668H34.0072V18.6368H34.4748V16.7668H34.9425V19.1044ZM27.4611 19.1044H26.9931V18.6368H27.4611V19.1044ZM32.1368 17.2347H26.0578V16.767H32.1368V17.2347ZM34.9427 20.5077H30.7342V19.5724H34.9427V20.5077ZM30.2662 20.5077H26.0578V19.5724H30.2662V20.5077ZM34.9427 40.5477H30.7342V39.6124H34.9427V40.5477ZM30.2662 40.5477H26.0578V39.6124H30.2662V40.5477ZM26.5256 43.3532H26.058V41.95H28.3962V42.8853H29.7993V42.4177H28.8636V41.95H30.2669V43.353H27.9285V42.4177H26.5256V43.3532ZM34.9425 43.353H32.6042V42.4177H31.2013V42.8853H32.1368V43.353H30.7336V41.95H32.6042V41.0153H33.0719V42.8853H33.5395V41.0153H34.0072V42.8853H34.4748V41.0153H34.9425V43.353ZM27.4611 43.353H26.9931V42.8853H27.4611V43.353ZM32.1368 41.4832H26.0578V41.0155H32.1368V41.4832ZM35.8778 19.1049H35.4102V17.7024H37.7484V18.6368H39.1506V18.1701H38.2159V17.7024H39.6182V19.1044H37.2808V18.1701H35.8778V19.1049ZM44.2947 19.1044H41.9564V18.1701H40.5534V18.6368H41.4889V19.1044H40.0858V17.7024H41.9565V16.7668H42.4241V18.6368H42.8917V16.7668H43.3594V18.6368H43.8271V16.7668H44.2947L44.2947 19.1044ZM36.8125 19.1044H36.3453V18.6368H36.8125V19.1044ZM41.489 17.2347H35.4099V16.767H41.4889L41.489 17.2347ZM44.294 20.5077H40.0864V19.5724H44.2941L44.294 20.5077ZM39.6184 20.5077H35.4099V19.5724H39.6184V20.5077ZM44.294 40.5477H40.0864V39.6124H44.2941L44.294 40.5477ZM39.6184 40.5477H35.4099V39.6124H39.6184V40.5477ZM35.8778 43.3532H35.4102V41.95H37.7484V42.8853H39.1506V42.4177H38.2159V41.95H39.6182V43.353H37.2808V42.4177H35.8778V43.3532ZM44.2947 43.353H41.9564V42.4177H40.5534V42.8853H41.4889V43.353H40.0858V41.95H41.9565V41.0153H42.4241V42.8853H42.8917V41.0153H43.3594V42.8853H43.8271V41.0153H44.2947L44.2947 43.353ZM36.8125 43.353H36.3453V42.8853H36.8125V43.353ZM41.489 41.4832H35.4099V41.0155H41.4889L41.489 41.4832ZM45.2299 19.1049H44.7623V17.7024H47.0997V18.6368H48.5027V18.1701H47.568V17.7024H48.9703V19.1044H46.6321V18.1701H45.2299V19.1049ZM53.6468 19.1044H51.3085V18.1701H49.9055V18.6368H50.8411V19.1044H49.4379V17.7024H51.3085V16.7668H51.7762V18.6368H52.2438V16.7668H52.7115V18.6368H53.1792V16.7668H53.6468V19.1044ZM46.1646 19.1044H45.6974V18.6368H46.1646V19.1044ZM50.8411 17.2347H44.7621V16.767H50.8411L50.8411 17.2347ZM53.6463 20.5077H49.4378V19.5724H53.6463V20.5077ZM48.9705 20.5077H44.7621V19.5724H48.9705V20.5077ZM53.6463 40.5477H49.4378V39.6124H53.6463V40.5477ZM48.9705 40.5477H44.7621V39.6124H48.9705V40.5477ZM45.2299 43.3532H44.7623V41.95H47.0997V42.8853H48.5027V42.4177H47.568V41.95H48.9703V43.353H46.6321V42.4177H45.2299V43.3532ZM53.6468 43.353H51.3085V42.4177H49.9055V42.8853H50.8411V43.353H49.4379V41.95H51.3085V41.0153H51.7762V42.8853H52.2438V41.0153H52.7115V42.8853H53.1792V41.0153H53.6468V43.353ZM46.1646 43.353H45.6974V42.8853H46.1646V43.353ZM50.8411 41.4832H44.7621V41.0155H50.8411L50.8411 41.4832ZM54.5814 19.1049H54.1136V17.7024H56.4519V18.6368H57.8549V18.1701H56.9194V17.7024H58.3225V19.1044H55.9843V18.1701H54.5814V19.1049ZM62.9981 19.1044H60.6607V18.1701H59.2578V18.6368H60.1925V19.1044H58.7901V17.7024H60.6607V16.7668H61.1284V18.6368H61.5952V16.7668H62.0629V18.6368H62.5305V16.7668H62.9981V19.1044ZM55.5168 19.1044H55.0495V18.6368H55.5168V19.1044ZM60.1925 17.2347H54.1143V16.767H60.1925V17.2347ZM62.9984 20.5077H58.7899V19.5724H62.9984V20.5077ZM58.3227 20.5077H54.1143V19.5724H58.3227V20.5077ZM62.9984 40.5477H58.7899V39.6124H62.9984V40.5477ZM58.3227 40.5477H54.1143V39.6124H58.3227V40.5477ZM54.5814 43.3532H54.1136V41.95H56.4519V42.8853H57.8549V42.4177H56.9194V41.95H58.3225V43.353H55.9843V42.4177H54.5814V43.3532ZM62.9981 43.353H60.6607V42.4177H59.2578V42.8853H60.1925V43.353H58.7901V41.95H60.6607V41.0153H61.1284V42.8853H61.5952V41.0153H62.0629V42.8853H62.5305V41.0153H62.9981V43.353ZM55.5168 43.353H55.0495V42.8853H55.5168V43.353ZM60.1925 41.4832H54.1143V41.0155H60.1925V41.4832ZM63.9335 19.1049H63.4659V17.7024H65.8041V18.6368H67.207V18.1701H66.2715V17.7024H67.6747V19.1044H65.3364V18.1701H63.9335V19.1049ZM72.3504 19.1044H70.0121V18.1701H68.6099V18.6368H69.5446V19.1044H68.1423V17.7024H70.0121V16.7668H70.4797V18.6368H70.9474V16.7668H71.415V18.6368H71.8827V16.7668H72.3504V19.1044ZM64.869 19.1044H64.4009V18.6368H64.869V19.1044ZM69.5446 17.2347H63.4664V16.767H69.5446V17.2347ZM72.3505 20.5077H68.1421V19.5724H72.3505V20.5077ZM67.674 20.5077H63.4664V19.5724H67.674V20.5077ZM72.3505 40.5477H68.1421V39.6124H72.3505V40.5477ZM67.674 40.5477H63.4664V39.6124H67.674V40.5477ZM63.9335 43.3532H63.4659V41.95H65.8041V42.8853H67.207V42.4177H66.2715V41.95H67.6747V43.353H65.3364V42.4177H63.9335V43.3532ZM72.3504 43.353H70.0121V42.4177H68.6099V42.8853H69.5446V43.353H68.1423V41.95H70.0121V41.0153H70.4797V42.8853H70.9474V41.0153H71.415V42.8853H71.8827V41.0153H72.3504V43.353ZM64.869 43.353H64.4009V42.8853H64.869V43.353ZM69.5446 41.4832H63.4664V41.0155H69.5446V41.4832ZM73.2856 19.1049H72.818V17.7024H75.1562V18.6368H76.5592V18.1701H75.6237V17.7024H77.0269V19.1044H74.6886V18.1701H73.2856V19.1049ZM81.7025 19.1044H79.3642V18.1701H77.9613V18.6368H78.8968V19.1044H77.4936V17.7024H79.3642V16.7668H79.8319V18.6368H80.2995V16.7668H80.7672V18.6368H81.2349V16.7668H81.7025V19.1044ZM74.2212 19.1044H73.7531V18.6368H74.2212V19.1044ZM78.8968 17.2347H72.8178V16.767H78.8968V17.2347ZM81.7027 20.5077H77.4942V19.5724H81.7027V20.5077ZM77.0262 20.5077H72.8178V19.5724H77.0262V20.5077ZM81.7027 40.5477H77.4942V39.6124H81.7027V40.5477ZM77.0262 40.5477H72.8178V39.6124H77.0262V40.5477ZM73.2856 43.3532H72.818V41.95H75.1562V42.8853H76.5592V42.4177H75.6237V41.95H77.0269V43.353H74.6886V42.4177H73.2856V43.3532ZM81.7025 43.353H79.3642V42.4177H77.9613V42.8853H78.8968V43.353H77.4936V41.95H79.3642V41.0153H79.8319V42.8853H80.2995V41.0153H80.7672V42.8853H81.2349V41.0153H81.7025V43.353ZM74.2212 43.353H73.7531V42.8853H74.2212V43.353ZM78.8968 41.4832H72.8178V41.0155H78.8968V41.4832Z" fill="white"/>
</g>
<mask id="mask4_35287_477" style="mask-type:luminance" maskUnits="userSpaceOnUse" x="0" y="0" width="61" height="60">
<path d="M30.5 60C47.0685 60 60.5 46.5685 60.5 30C60.5 13.4315 47.0685 0 30.5 0C13.9315 0 0.5 13.4315 0.5 30C0.5 46.5685 13.9315 60 30.5 60Z" fill="white"/>
</mask>
<g mask="url(#mask4_35287_477)">
<path d="M26.3809 36.3454C33.5002 38.6588 38.644 29.5137 32.9695 24.6317C36.435 29.7593 32.5625 36.6438 26.3809 36.3454Z" fill="#D91F26"/>
</g>
<mask id="mask5_35287_477" style="mask-type:luminance" maskUnits="userSpaceOnUse" x="0" y="0" width="61" height="60">
<path d="M30.5 60C47.0685 60 60.5 46.5685 60.5 30C60.5 13.4315 47.0685 0 30.5 0C13.9315 0 0.5 13.4315 0.5 30C0.5 46.5685 13.9315 60 30.5 60Z" fill="white"/>
</mask>
<g mask="url(#mask5_35287_477)">
<path d="M35.147 35.0307C39.6132 32.4492 38.673 25.7439 33.6686 24.4905C36.9923 26.9899 37.6553 31.7137 35.147 35.0307ZM30.4999 37.575L30.124 30.06L30.4999 24.1432C30.728 24.4626 31.0332 24.719 31.3871 24.8886V29.3058L31.0846 36.7701L30.4999 37.575ZM30.3499 23.6718L30.4999 23.8138C31.2403 24.8657 32.8712 23.9827 32.3941 22.788C32.218 23.7217 30.9761 23.9335 30.4999 23.1117" fill="#D91F26"/>
</g>
<mask id="mask6_35287_477" style="mask-type:luminance" maskUnits="userSpaceOnUse" x="0" y="0" width="61" height="60">
<path d="M30.5 60C47.0685 60 60.5 46.5685 60.5 30C60.5 13.4315 47.0685 0 30.5 0C13.9315 0 0.5 13.4315 0.5 30C0.5 46.5685 13.9315 60 30.5 60Z" fill="white"/>
</mask>
<g mask="url(#mask6_35287_477)">
<path d="M34.6191 36.3454C27.4996 38.6588 22.3558 29.5137 28.0305 24.6317C24.5648 29.7593 28.4374 36.6438 34.6191 36.3454Z" fill="#D91F26"/>
</g>
<mask id="mask7_35287_477" style="mask-type:luminance" maskUnits="userSpaceOnUse" x="0" y="0" width="61" height="60">
<path d="M30.5 60C47.0685 60 60.5 46.5685 60.5 30C60.5 13.4315 47.0685 0 30.5 0C13.9315 0 0.5 13.4315 0.5 30C0.5 46.5685 13.9315 60 30.5 60Z" fill="white"/>
</mask>
<g mask="url(#mask7_35287_477)">
<path d="M25.8531 35.0307C21.3871 32.4492 22.3273 25.7439 27.3315 24.4905C24.0078 26.9899 23.345 31.7137 25.8531 35.0307ZM30.5003 37.575L30.8763 30.06L30.5003 24.1432C30.2722 24.4626 29.967 24.719 29.6131 24.8886V29.3058L29.9156 36.7701L30.5003 37.575ZM30.6504 23.6718L30.5003 23.8138C29.7599 24.8657 28.1291 23.9827 28.606 22.788C28.7823 23.7217 30.0241 23.9335 30.5003 23.1117" fill="#D91F26"/>
</g>
</g>
<defs>
<clipPath id="clip0_35287_477">
<rect width="60" height="60" fill="white" transform="translate(0.5)"/>
</clipPath>
</defs>
</svg>
