<svg width="61" height="60" viewBox="0 0 61 60" fill="none" xmlns="http://www.w3.org/2000/svg">
<g clip-path="url(#clip0_35287_385)">
<path d="M30.5 60C47.0685 60 60.5 46.5685 60.5 30C60.5 13.4315 47.0685 0 30.5 0C13.9315 0 0.5 13.4315 0.5 30C0.5 46.5685 13.9315 60 30.5 60Z" fill="#F0F0F0"/>
<path d="M60.4998 30C60.4998 17.101 52.3586 6.10476 40.9346 1.86597V58.1341C52.3586 53.8952 60.4998 42.8989 60.4998 30Z" fill="#D80027"/>
<path d="M0.5 30C0.5 42.8989 8.64125 53.8952 20.0653 58.134V1.86597C8.64125 6.10476 0.5 17.101 0.5 30Z" fill="#6DA544"/>
</g>
<defs>
<clipPath id="clip0_35287_385">
<rect width="60" height="60" fill="white" transform="translate(0.5)"/>
</clipPath>
</defs>
</svg>
