<svg width="61" height="60" viewBox="0 0 61 60" fill="none" xmlns="http://www.w3.org/2000/svg">
<g clip-path="url(#clip0_35287_406)">
<path d="M30.5 60C47.0685 60 60.5 46.5685 60.5 30C60.5 13.4315 47.0685 0 30.5 0C13.9315 0 0.5 13.4315 0.5 30C0.5 46.5685 13.9315 60 30.5 60Z" fill="#D80027"/>
<path d="M16.918 18.2578L19.5078 26.2266H27.8867L21.1133 31.1602L23.7031 39.1289L16.918 34.207L10.1328 39.1289L12.7344 31.1602L5.94922 26.2266H14.3281L16.918 18.2578Z" fill="#FFDA44"/>
<path d="M36.0664 46.4648L34.0859 44.0273L31.1563 45.1641L32.8555 42.5273L30.875 40.0781L33.9102 40.8867L35.6211 38.25L35.7852 41.3906L38.832 42.1992L35.8906 43.3242L36.0664 46.4648Z" fill="#FFDA44"/>
<path d="M40.0039 39.3164L40.9414 36.3164L38.375 34.5L41.5156 34.4531L42.4414 31.4531L43.4609 34.4297L46.6016 34.3945L44.082 36.2695L45.0898 39.2461L42.5234 37.4297L40.0039 39.3164Z" fill="#FFDA44"/>
<path d="M45.3125 22.0195L43.9297 24.8437L46.1797 27.0352L43.0742 26.5898L41.6914 29.4023L41.1523 26.3086L38.0352 25.8633L40.8242 24.3984L40.2852 21.293L42.5352 23.4844L45.3125 22.0195Z" fill="#FFDA44"/>
<path d="M36.1484 13.4648L35.9141 16.5938L38.832 17.7773L35.7734 18.5273L35.5508 21.668L33.8984 18.9961L30.8398 19.7461L32.8672 17.3438L31.2031 14.6836L34.1211 15.8672L36.1484 13.4648Z" fill="#FFDA44"/>
</g>
<defs>
<clipPath id="clip0_35287_406">
<rect width="60" height="60" fill="white" transform="translate(0.5)"/>
</clipPath>
</defs>
</svg>
