<svg width="61" height="60" viewBox="0 0 61 60" fill="none" xmlns="http://www.w3.org/2000/svg">
<g clip-path="url(#clip0_35287_524)">
<mask id="mask0_35287_524" style="mask-type:luminance" maskUnits="userSpaceOnUse" x="0" y="0" width="61" height="60">
<path d="M30.5 60C47.0685 60 60.5 46.5685 60.5 30C60.5 13.4315 47.0685 0 30.5 0C13.9315 0 0.5 13.4315 0.5 30C0.5 46.5685 13.9315 60 30.5 60Z" fill="white"/>
</mask>
<g mask="url(#mask0_35287_524)">
<path d="M-15.5801 0H104.42V60H-15.5801V0Z" fill="#0038A8"/>
</g>
<mask id="mask1_35287_524" style="mask-type:luminance" maskUnits="userSpaceOnUse" x="0" y="0" width="61" height="60">
<path d="M30.5 60C47.0685 60 60.5 46.5685 60.5 30C60.5 13.4315 47.0685 0 30.5 0C13.9315 0 0.5 13.4315 0.5 30C0.5 46.5685 13.9315 60 30.5 60Z" fill="white"/>
</mask>
<g mask="url(#mask1_35287_524)">
<path d="M-15.5801 30H104.42V60H-15.5801V30Z" fill="#CE1126"/>
</g>
<mask id="mask2_35287_524" style="mask-type:luminance" maskUnits="userSpaceOnUse" x="0" y="0" width="61" height="60">
<path d="M30.5 60C47.0685 60 60.5 46.5685 60.5 30C60.5 13.4315 47.0685 0 30.5 0C13.9315 0 0.5 13.4315 0.5 30C0.5 46.5685 13.9315 60 30.5 60Z" fill="white"/>
</mask>
<g mask="url(#mask2_35287_524)">
<path d="M36.3818 30L-7.86816 60V0" fill="white"/>
</g>
<mask id="mask3_35287_524" style="mask-type:luminance" maskUnits="userSpaceOnUse" x="0" y="0" width="61" height="60">
<path d="M30.5 60C47.0685 60 60.5 46.5685 60.5 30C60.5 13.4315 47.0685 0 30.5 0C13.9315 0 0.5 13.4315 0.5 30C0.5 46.5685 13.9315 60 30.5 60Z" fill="white"/>
</mask>
<g mask="url(#mask3_35287_524)">
<path d="M23.5119 30.6809L24.1928 30L23.5119 29.3192L18.3559 29.6572C18.3485 29.5431 18.3373 29.4293 18.3225 29.3159L23.0279 28.6964L22.4723 28.1412L18.2679 28.9775C18.1343 28.302 17.8682 27.6598 17.485 27.0878L21.0497 24.7058V23.9202L17.2844 26.8094C17.2146 26.7187 17.142 26.6304 17.0665 26.5445L20.9513 23.1375V22.1752H19.9889L16.582 26.06C16.4961 25.9845 16.4077 25.9118 16.3171 25.842L19.2063 22.0767H18.4207L16.0388 25.6414C15.4667 25.2582 14.8244 24.9921 14.149 24.8585L14.9853 20.6541L14.4301 20.0985L13.8105 24.8039C13.6972 24.7891 13.5833 24.7779 13.4693 24.7704L13.8073 19.6145L13.1264 18.9336L12.4455 19.6145L12.7835 24.7704C12.6694 24.7779 12.5556 24.7891 12.4422 24.8039L11.8226 20.0985L11.2674 20.6541L12.1037 24.8585C11.4282 24.9921 10.7859 25.2582 10.2139 25.6414L7.83201 22.0767H7.04643L9.93567 25.842C9.84502 25.9118 9.75666 25.9845 9.67071 26.06L6.26379 22.1752H5.30139V23.1375L9.18615 26.5445C9.11067 26.6304 9.03799 26.7187 8.96823 26.8094L5.20293 23.9202V24.7058L8.76759 27.0878C8.38435 27.6598 8.11827 28.302 7.98471 28.9775L3.78033 28.1412L3.22467 28.6964L7.93011 29.3159C7.91526 29.4293 7.90408 29.5431 7.89657 29.6572L2.74059 29.3192L2.05983 30L2.74071 30.6809L7.89669 30.3429C7.90413 30.4578 7.91553 30.5714 7.93023 30.6842L3.22479 31.3037L3.78045 31.8589L7.98483 31.0226C8.11835 31.6981 8.38446 32.3405 8.76777 32.9125L5.20299 35.2944V36.08L8.96829 33.1908C9.03805 33.2814 9.11073 33.3698 9.18621 33.4557L5.30145 36.8627V37.8251H6.26385L9.67083 33.9404C9.75673 34.0158 9.84508 34.0884 9.93573 34.1581L7.04649 37.9235H7.83207L10.214 34.3588C10.786 34.742 11.4282 35.0081 12.1037 35.1418L11.2674 39.346L11.8226 39.9017L12.4422 35.1962C12.5549 35.211 12.6687 35.2224 12.7835 35.2298L12.4455 40.3858L13.1264 41.0667L13.8073 40.3858L13.4693 35.2298C13.5834 35.2224 13.6972 35.2112 13.8105 35.1962L14.4301 39.9017L14.9853 39.346L14.1491 35.1418C14.8245 35.0082 15.4667 34.742 16.0387 34.3588L18.4206 37.9235H19.2062L16.317 34.158C16.4076 34.0883 16.4959 34.0157 16.5818 33.9403L19.9889 37.825H20.9512V36.8626L17.0664 33.4557C17.1419 33.3697 17.2146 33.2814 17.2844 33.1907L21.0496 36.0799V35.2943L17.4849 32.9124C17.8682 32.3404 18.1343 31.6981 18.2678 31.0226L22.4723 31.8588L23.0279 31.3037L18.3224 30.6841C18.3371 30.5714 18.3485 30.4578 18.3559 30.3428L23.5119 30.6809ZM29.7704 29.293L29.7263 27.1408L28.4256 28.8562L26.365 28.2331L27.5948 30L26.365 31.767L28.4256 31.1439L29.7263 32.8592L29.7704 30.707L31.8039 30L29.7704 29.293ZM-7.86849 50.5613L-10.2468 50.7624L-11.2618 48.6023L-11.8055 50.9264L-14.1738 51.224L-12.1317 52.4597L-12.5802 54.8041L-10.7742 53.2429L-8.68305 54.3946L-9.60945 52.194L-7.86849 50.5613ZM-9.60945 7.80605L-8.68305 5.60555L-10.7742 6.75719L-12.5802 5.19604L-12.1317 7.54042L-14.1738 8.77613L-11.8055 9.07355L-11.2618 11.3979L-10.2468 9.23765L-7.86849 9.43883L-9.60945 7.80605Z" fill="#FCD116"/>
</g>
</g>
<defs>
<clipPath id="clip0_35287_524">
<rect width="60" height="60" fill="white" transform="translate(0.5)"/>
</clipPath>
</defs>
</svg>
